<?xml version="1.0" encoding="UTF-8"?>
<svg id="Layer_1" data-name="Layer 1" xmlns="http://www.w3.org/2000/svg" xmlns:xlink="http://www.w3.org/1999/xlink" viewBox="0 0 256 256">
  <defs>
    <style>
      .cls-1 {
        fill: none;
      }

      .cls-2 {
        fill: url(#linear-gradient);
      }

      .cls-3 {
        clip-path: url(#clippath);
      }

      .cls-4 {
        clip-path: url(#clippath-1);
      }

      .cls-5 {
        fill: url(#linear-gradient-2);
      }

      .cls-6 {
        fill: #1baae1;
        fill-rule: evenodd;
      }
    </style>
    <clipPath id="clippath">
      <path class="cls-1" d="m104.38,137.22c-15.6,19.27-33.88,41.59-51.54,41.59-14.16,0-26.49-10.7-32.84-26.47,6.72,28.12,24.7,48.24,45.86,48.24,17.5,0,35.24-19.35,51.92-39.94l7.74-9.99-16.16-19.98-4.97,6.55Z"/>
    </clipPath>
    <linearGradient id="linear-gradient" x1="17.59" y1="11.27" x2="26.18" y2="11.27" gradientTransform="translate(-195.95 304.01) scale(12.28 -12.28)" gradientUnits="userSpaceOnUse">
      <stop offset="0" stop-color="#1baae1"/>
      <stop offset=".07" stop-color="#35b3e6"/>
      <stop offset=".2" stop-color="#60c3ed"/>
      <stop offset=".31" stop-color="#7fcef2"/>
      <stop offset=".41" stop-color="#92d5f6"/>
      <stop offset=".48" stop-color="#99d7f7"/>
      <stop offset=".57" stop-color="#95d6f6"/>
      <stop offset=".67" stop-color="#89d1f4"/>
      <stop offset=".76" stop-color="#74caf1"/>
      <stop offset=".85" stop-color="#58c0ec"/>
      <stop offset=".95" stop-color="#34b3e5"/>
      <stop offset="1" stop-color="#1baae1"/>
    </linearGradient>
    <clipPath id="clippath-1">
      <path class="cls-1" d="m20,103.64c6.35-15.75,18.68-26.44,32.84-26.44,17.67,0,36,22.32,51.57,41.62l33.84,41.81c16.7,20.59,34.4,39.95,51.91,39.95,21.15,0,39.15-20.12,45.84-48.24-6.34,15.78-18.67,26.47-32.83,26.47-17.65,0-35.94-22.32-51.53-41.59l-33.84-41.85c-16.67-20.6-34.42-39.95-51.93-39.95-21.15,0-39.14,20.16-45.86,48.24"/>
    </clipPath>
    <linearGradient id="linear-gradient-2" x1="21.75" y1="15.62" x2="30.33" y2="15.62" gradientTransform="translate(-526.89 520.91) scale(25.15 -25.15)" gradientUnits="userSpaceOnUse">
      <stop offset="0" stop-color="#f05a2a"/>
      <stop offset=".13" stop-color="#f05e2a"/>
      <stop offset=".27" stop-color="#f26b2c"/>
      <stop offset=".4" stop-color="#f47f2e"/>
      <stop offset=".5" stop-color="#f69330"/>
      <stop offset=".6" stop-color="#f47f2e"/>
      <stop offset=".73" stop-color="#f26b2c"/>
      <stop offset=".87" stop-color="#f05e2a"/>
      <stop offset="1" stop-color="#f05a2a"/>
    </linearGradient>
  </defs>
  <g class="cls-3">
    <rect class="cls-2" x="20" y="130.66" width="105.52" height="69.91"/>
  </g>
  <g class="cls-4">
    <rect class="cls-5" x="20" y="55.41" width="216" height="145.16"/>
  </g>
  <path class="cls-6" d="m55.45,83.46c-1.68-.43-3.41-.65-5.15-.66-16.74,0-30.3,20.25-30.3,45.19s13.56,45.19,30.3,45.19c1.74,0,3.47-.22,5.15-.66-12.41-5.83-21.43-23.56-21.43-44.53s9.02-38.69,21.43-44.53"/>
</svg>