<?xml version="1.0" encoding="UTF-8"?>
<svg id="Layer_1" data-name="Layer 1" xmlns="http://www.w3.org/2000/svg" xmlns:xlink="http://www.w3.org/1999/xlink" viewBox="0 0 200 33.89">
  <defs>
    <style>
      .cls-1 {
        fill: none;
      }

      .cls-2 {
        fill: url(#linear-gradient);
      }

      .cls-3 {
        clip-path: url(#clippath);
      }

      .cls-4 {
        fill: #f05a2a;
      }

      .cls-5, .cls-6 {
        fill: #1baae1;
      }

      .cls-7 {
        clip-path: url(#clippath-1);
      }

      .cls-8 {
        fill: url(#linear-gradient-2);
      }

      .cls-6 {
        fill-rule: evenodd;
      }
    </style>
    <clipPath id="clippath">
      <path class="cls-1" d="m101.58,16.75c-3.19,3.95-6.94,8.52-10.56,8.52-2.9,0-5.43-2.19-6.73-5.42,1.37,5.76,5.06,9.88,9.39,9.88,3.58,0,7.22-3.96,10.64-8.18l1.58-2.05-3.31-4.09-1.02,1.34Z"/>
    </clipPath>
    <linearGradient id="linear-gradient" x1="-391.96" y1="253.75" x2="-390.2" y2="253.75" gradientTransform="translate(4897.4 3138.64) scale(12.28 -12.28)" gradientUnits="userSpaceOnUse">
      <stop offset="0" stop-color="#1baae1"/>
      <stop offset=".07" stop-color="#35b3e6"/>
      <stop offset=".2" stop-color="#60c3ed"/>
      <stop offset=".31" stop-color="#7fcef2"/>
      <stop offset=".41" stop-color="#92d5f6"/>
      <stop offset=".48" stop-color="#99d7f7"/>
      <stop offset=".57" stop-color="#95d6f6"/>
      <stop offset=".67" stop-color="#89d1f4"/>
      <stop offset=".76" stop-color="#74caf1"/>
      <stop offset=".85" stop-color="#58c0ec"/>
      <stop offset=".95" stop-color="#34b3e5"/>
      <stop offset="1" stop-color="#1baae1"/>
    </linearGradient>
    <clipPath id="clippath-1">
      <path class="cls-1" d="m84.3,9.88c1.3-3.23,3.83-5.42,6.73-5.42,3.62,0,7.37,4.58,10.56,8.52l6.93,8.57c3.41,4.22,7.05,8.18,10.63,8.18,4.33,0,8.02-4.12,9.39-9.88-1.3,3.23-3.83,5.42-6.73,5.42-3.61,0-7.36-4.58-10.56-8.52l-6.93-8.57c-3.41-4.22-7.05-8.18-10.64-8.18-4.33,0-8,4.12-9.39,9.88"/>
    </clipPath>
    <linearGradient id="linear-gradient-2" x1="-409.32" y1="266.31" x2="-407.56" y2="266.31" gradientTransform="translate(10378.9 6712.44) scale(25.15 -25.15)" gradientUnits="userSpaceOnUse">
      <stop offset="0" stop-color="#f05a2a"/>
      <stop offset=".13" stop-color="#f05e2a"/>
      <stop offset=".27" stop-color="#f26b2c"/>
      <stop offset=".4" stop-color="#f47f2e"/>
      <stop offset=".5" stop-color="#f69330"/>
      <stop offset=".6" stop-color="#f47f2e"/>
      <stop offset=".73" stop-color="#f26b2c"/>
      <stop offset=".87" stop-color="#f05e2a"/>
      <stop offset="1" stop-color="#f05a2a"/>
    </linearGradient>
  </defs>
  <g class="cls-3">
    <rect class="cls-2" x="84.3" y="15.41" width="21.61" height="14.32"/>
  </g>
  <g class="cls-7">
    <rect class="cls-8" x="84.3" width="44.24" height="29.73"/>
  </g>
  <path class="cls-6" d="m91.55,5.74c-.34-.09-.69-.14-1.04-.14-3.43,0-6.21,4.15-6.21,9.25s2.78,9.25,6.21,9.25c.35,0,.7-.05,1.04-.13-2.54-1.19-4.39-4.83-4.39-9.12s1.86-7.93,4.39-9.12"/>
  <path class="cls-5" d="m6.71,11.8H0v17.92h2.02v-6.33h4.35c3.83,0,7.05-2,7.05-5.87v-.05c0-3.53-2.67-5.68-6.71-5.68m4.66,5.81c0,2.35-1.95,3.94-4.92,3.94H2.02v-7.89h4.52c2.89,0,4.82,1.33,4.82,3.89v.06Zm6.35,2.33v-3.46h-1.97v13.24h1.97v-5.28c0-4,2.36-6.07,5.25-6.07h.15v-2.13c-2.48-.11-4.46,1.51-5.4,3.69m13.47-3.74c-3.79-.03-6.88,3.01-6.91,6.79,0,.04,0,.08,0,.12v.05c-.04,3.74,2.96,6.82,6.7,6.86.05,0,.11,0,.16,0,3.79.05,6.89-2.99,6.94-6.77,0-.05,0-.09,0-.14v-.05c.04-3.75-2.97-6.82-6.72-6.86-.06,0-.12,0-.18,0m4.87,6.96c0,2.78-2,5.1-4.87,5.1s-4.89-2.31-4.89-5.15v-.05c0-2.78,1.97-5.12,4.84-5.12s4.92,2.33,4.92,5.17v.05Zm4.61-9.23h2.25v-2.17h-2.25v2.17Zm.13,16.53c0,1.23-.61,1.77-1.51,1.77-.33.01-.65-.02-.97-.08v1.61c.4.1.81.14,1.23.13,2.02,0,3.23-1.04,3.23-3.41v-13.99h-1.98v13.97Zm11.07-14.26c-3.69,0-6.35,3.07-6.35,6.92,0,4.12,3,6.91,6.61,6.91,2.11.07,4.13-.85,5.46-2.48l-1.23-1.1c-1.1,1.13-2.33,1.87-4.18,1.87-2.33,0-4.38-1.61-4.67-4.4h10.5l.02-.38v-.31c0-3.89-2.25-7.02-6.17-7.02m-4.36,6.13c.28-2.56,2.05-4.46,4.3-4.46,2.59,0,4.02,2.09,4.23,4.46h-8.53Zm19.03,5.94c-2.76,0-4.87-2.28-4.87-5.15v-.05c0-2.87,2.05-5.12,4.74-5.12,1.82,0,2.97.9,4.02,2l1.31-1.39c-1.26-1.33-2.78-2.36-5.3-2.36-3.9,0-6.79,3.15-6.79,6.92v.05c-.05,3.74,2.95,6.81,6.69,6.86.03,0,.06,0,.09,0,2.48,0,4.07-1.04,5.4-2.56l-1.26-1.18c-1.04,1.13-2.33,1.97-4.05,1.97m14.41-10.03v-1.74h-4.2v-4.72h-1.97v4.72h-1.84v1.74h1.84v8c0,2.69,1.59,3.74,3.74,3.74.83.03,1.65-.17,2.38-.57v-1.69c-.59.31-1.25.47-1.92.46-1.34,0-2.23-.56-2.23-2.2v-7.75h4.2Z"/>
  <path class="cls-4" d="m136.24,11.77l-8.15,17.96h2.07l2.1-4.74h9.74l2.1,4.74h2.17l-8.15-17.96h-1.89Zm-3.18,11.4l4.1-9.05,4.07,9.05h-8.17Zm26.05-4.3c-1.1-1.44-2.69-2.66-5.17-2.66-3.39-.05-6.17,2.65-6.22,6.04,0,.07,0,.15,0,.22v.05c-.03,3.39,2.69,6.17,6.08,6.2.05,0,.1,0,.14,0,2.44,0,4.04-1.26,5.2-2.78v1.56c0,3.1-1.87,4.71-4.82,4.71-1.84,0-3.63-.59-5.1-1.69l-.9,1.53c1.77,1.22,3.87,1.86,6.02,1.83,2.13,0,3.83-.56,5.04-1.77,1.1-1.1,1.69-2.64,1.69-4.69v-10.94h-1.97v2.38Zm.08,3.61c0,2.67-2.36,4.48-4.87,4.48-2.47.06-4.53-1.9-4.58-4.38,0-.04,0-.09,0-.13v-.05c0-2.72,2.05-4.46,4.59-4.46s4.87,1.77,4.87,4.48v.05Zm11.37-6.26c-3.78-.04-6.88,3-6.92,6.78,0,.04,0,.09,0,.13v.05c-.04,3.74,2.96,6.82,6.7,6.86.05,0,.11,0,.16,0,3.79.05,6.9-2.97,6.96-6.76,0-.05,0-.1,0-.15v-.05c.04-3.75-2.97-6.82-6.71-6.86-.06,0-.12,0-.18,0m4.87,6.96c0,2.78-2,5.1-4.87,5.1s-4.89-2.31-4.89-5.15v-.05c0-2.78,1.97-5.12,4.84-5.12s4.92,2.33,4.92,5.17v.05Zm6.53-3.23v-3.46h-1.97v13.24h1.97v-5.28c0-4,2.36-6.07,5.25-6.07h.15v-2.13c-2.48-.13-4.46,1.51-5.4,3.69m16.64-2.21c-.97-.97-2.4-1.46-4.28-1.46-1.67-.01-3.32.38-4.81,1.13l.59,1.62c1.25-.63,2.62-.96,4.02-.95,2.48,0,3.92,1.23,3.92,3.58v.4c-1.31-.39-2.68-.58-4.05-.56-3.36,0-5.66,1.49-5.66,4.33v.06c0,2.71,2.46,4.12,4.94,4.12,1.86.05,3.62-.78,4.76-2.25v1.97h1.95v-8.09c0-1.67-.46-2.97-1.39-3.89m-.54,7.12c0,2.13-1.97,3.56-4.4,3.56-1.77,0-3.33-.97-3.33-2.64v-.05c0-1.61,1.39-2.67,3.87-2.67,1.31,0,2.61.19,3.87.56v1.23Z"/>
</svg>